<svg width="174" height="46" viewBox="0 0 174 46" fill="none" xmlns="http://www.w3.org/2000/svg">
<path d="M59.593 15.7009L37.1978 2.25009C34.2194 0.461317 30.4821 0.483596 27.5262 2.3042L5.81623 15.685C3.09088 17.3624 1.43518 20.3224 1.43518 23.5085V36.0076C1.43518 41.0907 5.58244 45.2125 10.6969 45.2125H54.802C59.9165 45.2125 64.0638 41.0907 64.0638 36.0076V23.5753C64.0638 20.3511 62.3664 17.3624 59.5898 15.6945L59.593 15.7009ZM60.6178 25.7779C60.4481 27.6685 59.5194 29.3554 58.1423 30.5681C56.7652 31.7808 54.9333 32.5129 52.951 32.5129H48.0511L47.9871 41.7273C47.9871 42.3925 47.5707 42.9877 46.9591 43.2328C46.9078 43.2582 46.8502 43.2773 46.7893 43.2964L46.7445 43.3092L45.0279 43.2964C44.9639 43.2773 44.903 43.2582 44.8454 43.2328C44.7942 43.2137 44.7493 43.1946 44.7013 43.1628C44.5636 43.0991 44.4483 43.0068 44.3426 42.9113C44.0255 42.6089 43.8366 42.1888 43.8366 41.7305L43.9007 28.4356L44.2593 28.3974H53.1848C54.1071 28.3974 54.9974 28.0027 55.6283 27.3248C56.2656 26.6341 56.5634 25.7365 56.4802 24.8007C56.3296 23.1234 54.8052 21.8184 52.999 21.8184H12.1988C11.2765 21.8184 10.3862 22.2003 9.75531 22.8847C9.11801 23.5753 8.81379 24.4793 8.89706 25.4087C9.05398 27.0797 10.5848 28.3974 12.3846 28.3974H39.4812L39.5132 28.7602L39.526 36.1859C39.526 39.2001 37.6045 41.8673 34.8599 42.9145C34.3923 43.0959 33.8927 43.2296 33.3771 43.3092L29.5565 43.3155L29.5053 43.2964C29.4605 43.2773 29.4156 43.2646 29.374 43.2391C28.7943 42.9813 28.4132 42.3989 28.4132 41.7527V40.9125C28.4132 40.0149 29.153 39.2733 30.0561 39.2733H32.2723C33.9888 39.2733 35.3787 37.8919 35.3787 36.1859V32.5192H12.1925C10.1076 32.5192 8.09963 31.6407 6.69052 30.1034C5.26219 28.5534 4.58005 26.5259 4.769 24.4347C5.10527 20.6503 8.47754 17.6998 12.4359 17.6998H53.1848C55.2696 17.6998 57.2776 18.5719 58.6867 20.1092C60.115 21.6656 60.7972 23.6867 60.6082 25.7843L60.6178 25.7779ZM22.5686 24.9917C22.5686 26.0325 21.7168 26.876 20.6728 26.876C19.6287 26.876 18.7768 26.0293 18.7768 24.9917C18.7768 23.9541 19.6287 23.1075 20.6728 23.1075C21.7168 23.1075 22.5686 23.9541 22.5686 24.9917ZM17.5343 24.9917C17.5343 26.0325 16.6824 26.876 15.6384 26.876C14.5944 26.876 13.7425 26.0293 13.7425 24.9917C13.7425 23.9541 14.5944 23.1075 15.6384 23.1075C16.6824 23.1075 17.5343 23.9541 17.5343 24.9917ZM161.219 18.6164C161.52 19.1257 161.93 19.4726 162.449 19.6572C162.967 19.8418 163.537 19.9341 164.155 19.9341H168.738C169.85 19.9341 170.641 19.6668 171.108 19.1321C171.576 18.5973 171.809 17.757 171.809 16.6176V9.58662C171.809 9.41156 171.723 9.32244 171.55 9.32244H170.615C170.442 9.32244 170.356 9.41156 170.356 9.58662V17.0664C170.356 17.5915 170.253 17.9576 170.051 18.1581C169.85 18.3586 169.526 18.4605 169.084 18.4605H164.063C163.781 18.4605 163.528 18.4286 163.3 18.3682C163.073 18.3077 162.878 18.1899 162.721 18.0117C162.564 17.8366 162.439 17.5979 162.352 17.3019C162.266 17.0027 162.221 16.6271 162.221 16.1688C162.256 15.9746 162.279 15.6977 162.288 15.3381C162.298 14.9784 162.301 14.6856 162.301 14.4564C162.301 12.5785 161.904 11.1749 161.107 10.2423C160.309 9.31289 159.14 8.84501 157.6 8.84501C154.481 8.84501 152.924 10.8025 152.924 14.7174C152.924 14.9625 152.927 15.2044 152.937 15.4431C152.947 15.6786 152.959 15.9046 152.975 16.1147C152.975 16.573 152.921 16.9486 152.815 17.2478C152.71 17.547 152.578 17.7889 152.418 17.9735C152.258 18.1581 152.082 18.2854 151.89 18.3554C151.694 18.4255 151.502 18.4605 151.307 18.4605H147.147C146.369 18.4605 145.747 18.295 145.28 17.9608C144.812 17.6266 144.578 17.1268 144.578 16.4584V13.7976C144.578 13.0082 144.473 12.3334 144.261 11.7701C144.05 11.2099 143.749 10.7484 143.361 10.3887C142.974 10.029 142.5 9.76167 141.943 9.58662C141.385 9.41156 140.774 9.32244 140.101 9.32244H137.053L142.141 3.345C142.247 3.22087 142.212 3.09992 142.036 2.97579L141.267 2.37104C141.161 2.28192 141.046 2.31057 140.921 2.45061L135.038 9.32244C134.987 9.32244 134.958 9.40201 134.958 9.55797V10.5319C134.958 10.707 135.048 10.7961 135.224 10.7961H139.65C140.815 10.7961 141.664 11.038 142.193 11.5186C142.721 12.0024 142.987 12.7345 142.987 13.718V15.7996C142.987 16.3088 142.961 16.7353 142.907 17.0759C142.852 17.4197 142.743 17.6902 142.577 17.8907C142.407 18.0944 142.161 18.2377 141.834 18.3268C141.507 18.4159 141.078 18.4573 140.55 18.4573H101.761C100.982 18.4573 100.361 18.295 99.8936 17.9703C99.426 17.6456 99.1922 17.1491 99.1922 16.4807V9.58025C99.1922 9.40519 99.1026 9.31607 98.9264 9.31607H97.9977C97.8216 9.31607 97.7319 9.40519 97.7319 9.58025V16.242C97.7319 16.6112 97.7191 16.9359 97.6935 17.216C97.6678 17.4961 97.6102 17.7284 97.5205 17.913C97.4308 18.0976 97.29 18.2345 97.0978 18.3204C96.9025 18.4095 96.6398 18.4509 96.3035 18.4509H91.5862C90.8432 18.4509 90.2668 18.2886 89.8505 17.9639C89.4342 17.6393 89.2292 17.1428 89.2292 16.4744V11.891C89.2292 11.716 89.1395 11.6268 88.9634 11.6268H88.0346C87.8585 11.6268 87.7689 11.716 87.7689 11.891V19.4758C87.7689 20.1951 87.6535 20.8062 87.4262 21.306C87.1988 21.8057 86.8881 22.2131 86.5006 22.5314C86.1131 22.8465 85.652 23.0756 85.1139 23.2157C84.5759 23.3557 84.0091 23.4257 83.4102 23.4257C82.917 23.4257 82.4014 23.3653 81.8634 23.2411C81.3253 23.117 80.8289 22.9038 80.371 22.595C79.913 22.2863 79.5352 21.8661 79.2341 21.3314C78.9331 20.7967 78.7857 20.1156 78.7857 19.2912C78.7857 18.4668 78.9459 17.7061 79.2629 16.9613C79.58 16.2165 79.9163 15.5704 80.2685 15.0261C80.3582 14.8861 80.3294 14.7715 80.1885 14.6824L79.3654 14.1572C79.1893 14.0522 79.0644 14.0522 78.9939 14.1572C78.5648 14.7556 78.1677 15.5099 77.7994 16.4234C77.4311 17.3369 77.2454 18.3459 77.2454 19.4503C77.2454 20.2747 77.3767 21.029 77.6425 21.7165C77.9083 22.4009 78.2926 22.9833 78.7954 23.4671C79.2982 23.9509 79.9259 24.3233 80.6753 24.5875C81.4246 24.8517 82.2797 24.9822 83.2309 24.9822C84.2557 24.9822 85.146 24.8421 85.9082 24.562C86.6672 24.2819 87.2917 23.8936 87.7753 23.4035C88.262 22.9101 88.6239 22.3277 88.8609 21.6529C89.0979 20.9781 89.2196 20.2365 89.2196 19.4281V19.0843C89.5206 19.3994 89.8761 19.619 90.2924 19.7432C90.6896 19.8609 91.1379 19.9214 91.6407 19.9246C91.6567 19.9246 91.6695 19.9246 91.6855 19.9246H96.4541C97.1266 19.9246 97.6358 19.7973 97.9913 19.5426C98.3436 19.288 98.6286 18.9506 98.84 18.5305C99.0866 19.1289 99.4773 19.5108 100.006 19.6763C100.518 19.8386 101.133 19.9182 101.844 19.9246C101.86 19.9246 101.87 19.9246 101.886 19.9246H141.072C141.866 19.9246 142.513 19.81 143.006 19.5808C143.499 19.3517 143.871 18.957 144.12 18.3968C144.332 19.0302 144.729 19.4408 145.312 19.6349C145.824 19.8036 146.397 19.8959 147.032 19.915C147.089 19.9182 147.15 19.9246 147.221 19.9246H151.406C151.899 19.9246 152.361 19.8546 152.79 19.7145C153.216 19.5745 153.59 19.2148 153.917 18.6355C154.304 19.1607 154.82 19.5395 155.464 19.7686C156.108 19.9978 156.818 20.1124 157.593 20.1124C158.368 20.1124 159.067 19.9978 159.685 19.7686C160.303 19.5395 160.812 19.1543 161.219 18.6101V18.6164ZM160.008 17.6297C159.509 18.3045 158.702 18.6451 157.593 18.6451C156.485 18.6451 155.685 18.3077 155.192 17.6297C154.698 16.955 154.452 15.9237 154.452 14.536C154.452 13.1483 154.698 12.187 155.192 11.4422C155.685 10.6974 156.485 10.3219 157.593 10.3219C158.702 10.3219 159.505 10.7006 160.008 11.455C160.511 12.2093 160.761 13.2374 160.761 14.536C160.761 15.9237 160.511 16.955 160.008 17.6297ZM90.5902 30.7495H84.7681V43.7484C84.7681 43.9839 84.6848 44.1876 84.5183 44.3531C84.3517 44.5187 84.15 44.6014 83.9098 44.6014C83.6696 44.6014 83.4678 44.5187 83.3013 44.3531C83.1348 44.1876 83.0515 43.9871 83.0515 43.7484V30.7495H77.1557C76.9187 30.7495 76.7137 30.6668 76.5472 30.4981C76.3807 30.3294 76.2974 30.1257 76.2974 29.8838C76.2974 29.6419 76.3807 29.4382 76.5472 29.2695C76.7137 29.1008 76.9155 29.0181 77.1557 29.0181H90.5902C90.8304 29.0181 91.0322 29.1008 91.1987 29.2695C91.3653 29.4382 91.4485 29.6419 91.4485 29.8838C91.4485 30.1257 91.3653 30.3294 91.1987 30.4981C91.0322 30.6668 90.8304 30.7495 90.5902 30.7495ZM93.0018 32.5765C91.314 32.5765 89.8761 33.1685 88.6816 34.3557C87.487 35.5429 86.8914 36.9657 86.8914 38.624C86.8914 40.2822 87.487 41.7304 88.6816 42.9177C89.8761 44.1049 91.314 44.6969 93.0018 44.6969C94.6895 44.6969 96.137 44.0476 97.3444 42.7522C97.3444 43.4969 97.3508 43.9075 97.3668 43.9839C97.4629 44.4582 97.7319 44.6969 98.1771 44.6969C98.4173 44.6969 98.6254 44.6205 98.8111 44.4709C98.9937 44.3213 99.0866 44.1208 99.0866 43.8662V38.624C99.0866 36.9625 98.4909 35.5398 97.2964 34.3557C96.1018 33.1685 94.6703 32.5765 93.0018 32.5765ZM96.057 41.6604C95.2147 42.4975 94.1963 42.9177 93.0018 42.9177C91.8072 42.9177 90.7664 42.4975 89.9241 41.6604C89.0819 40.8233 88.6591 39.8112 88.6591 38.624C88.6591 37.4368 89.0819 36.4214 89.9241 35.5748C90.7664 34.7281 91.7944 34.3048 93.0018 34.3048C94.2091 34.3048 95.2115 34.7281 96.057 35.5748C96.8992 36.4214 97.322 37.4368 97.322 38.624C97.322 39.8112 96.8992 40.8233 96.057 41.6604ZM122.667 39.0027L122.689 43.9362C122.689 44.1717 122.599 44.3818 122.42 44.5632C122.241 44.7446 122.033 44.8369 121.796 44.8369C121.546 44.8369 121.331 44.7574 121.162 44.6014C120.989 44.4423 120.909 44.2449 120.925 44.0094V39.0059C120.925 37.8187 120.502 36.8034 119.656 35.9567C118.811 35.1101 117.793 34.6868 116.608 34.6868C115.72 34.6868 114.91 34.9414 114.174 35.4443C113.437 35.9504 112.912 36.6156 112.595 37.4368C112.422 37.8633 112.335 38.1879 112.335 38.4107V43.7961C112.335 44.0476 112.243 44.2863 112.06 44.5091C111.877 44.7287 111.663 44.8401 111.419 44.8401C111.176 44.8401 110.968 44.7574 110.798 44.5919C110.628 44.4263 110.555 44.2226 110.571 43.9871V38.3662C110.571 38.1274 110.491 37.806 110.331 37.3922C110.01 36.5392 109.482 35.8517 108.739 35.3297C107.996 34.8077 107.17 34.5467 106.263 34.5467C105.05 34.5467 104.022 34.97 103.176 35.8167C102.331 36.6633 101.908 37.6787 101.908 38.8659C101.908 38.85 101.908 40.486 101.908 43.777C101.908 44.0285 101.818 44.2481 101.636 44.4295C101.456 44.611 101.248 44.7033 101.011 44.7033C100.774 44.7033 100.573 44.6205 100.4 44.455C100.227 44.2895 100.14 44.089 100.14 43.8503V38.8468C100.14 37.1853 100.729 35.7689 101.908 34.5881C103.086 33.4104 104.521 32.8216 106.209 32.8216C107.275 32.8216 108.275 33.0826 109.207 33.6046C110.138 34.1266 110.881 34.8459 111.439 35.7626C111.98 34.8936 112.704 34.2093 113.613 33.7096C114.52 33.2131 115.5 32.9616 116.553 32.9616C118.241 32.9616 119.682 33.5537 120.877 34.7409C122.071 35.9281 122.667 37.3508 122.667 39.0091V39.0027ZM132.178 32.8948C132.345 33.0603 132.428 33.264 132.428 33.4995C132.428 33.7351 132.342 33.9356 132.165 34.0916L127.845 37.9587C129.069 38.3853 130.052 39.1332 130.792 40.1995C131.531 41.2658 131.9 42.4498 131.9 43.7452C131.9 43.9839 131.807 44.1813 131.618 44.3372C131.429 44.4964 131.217 44.5728 130.98 44.5728C130.743 44.5728 130.545 44.4805 130.382 44.299C130.218 44.1176 130.135 43.9075 130.135 43.6688C130.135 42.4816 129.712 41.4631 128.867 40.6101C128.021 39.7571 126.997 39.3306 125.789 39.3306V43.8375C125.789 44.073 125.696 44.2736 125.507 44.4295C125.318 44.5887 125.107 44.6651 124.87 44.6651C124.633 44.6651 124.435 44.5728 124.271 44.3913C124.108 44.2099 124.025 43.9998 124.025 43.7643V28.6807C124.025 28.4611 124.111 28.2669 124.284 28.0982C124.457 27.9327 124.662 27.8499 124.896 27.8499C125.129 27.8499 125.341 27.9422 125.52 28.1237C125.7 28.3051 125.789 28.5152 125.789 28.7507V37.5895L130.945 32.8789C131.121 32.7197 131.326 32.6402 131.567 32.6402C131.807 32.6402 132.008 32.7229 132.175 32.8884L132.178 32.8948ZM142.775 33.595C141.751 32.9139 140.623 32.5765 139.4 32.5765C137.712 32.5765 136.274 33.1685 135.08 34.3557C133.885 35.5429 133.29 36.9657 133.29 38.624C133.29 40.2822 133.885 41.7304 135.08 42.9177C136.274 44.1049 137.712 44.6969 139.4 44.6969C140.13 44.6969 140.655 44.6873 140.976 44.6746C141.549 44.6269 141.834 44.334 141.834 43.7961C141.834 43.2264 141.533 42.9272 140.928 42.8954H139.4C138.382 42.8954 137.478 42.5866 136.691 41.9723C135.903 41.3581 135.397 40.5655 135.176 39.5979H145.437V37.7964C145.421 37.4336 145.286 36.9434 145.03 36.3259C144.553 35.1865 143.8 34.2793 142.775 33.5982V33.595ZM135.15 37.7932C135.355 36.7811 135.861 35.9472 136.665 35.2915C137.469 34.6358 138.388 34.308 139.422 34.308C140.457 34.308 141.315 34.639 142.048 35.3042C142.734 35.9535 143.179 36.7843 143.384 37.7932H135.15ZM156.354 33.595C155.329 32.9139 154.202 32.5765 152.979 32.5765C151.291 32.5765 149.853 33.1685 148.658 34.3557C147.464 35.5429 146.868 36.9657 146.868 38.624C146.868 40.2822 147.464 41.7304 148.658 42.9177C149.853 44.1049 151.291 44.6969 152.979 44.6969C153.709 44.6969 154.234 44.6873 154.554 44.6746C155.128 44.6269 155.413 44.334 155.413 43.7961C155.413 43.2264 155.112 42.9272 154.506 42.8954H152.979C151.96 42.8954 151.057 42.5866 150.269 41.9723C149.481 41.3581 148.975 40.5655 148.755 39.5979H159.015V37.7964C158.999 37.4336 158.865 36.9434 158.609 36.3259C158.132 35.1865 157.379 34.2793 156.354 33.5982V33.595ZM148.729 37.7932C148.934 36.7811 149.44 35.9472 150.244 35.2915C151.048 34.6358 151.967 34.308 153.001 34.308C154.035 34.308 154.894 34.639 155.627 35.3042C156.312 35.9535 156.758 36.7843 156.963 37.7932H148.729ZM172.021 38.8595L172.043 43.7929C172.043 44.0285 171.954 44.2386 171.771 44.42C171.589 44.6014 171.384 44.6937 171.147 44.6937C170.91 44.6937 170.708 44.6141 170.535 44.4582C170.362 44.3022 170.275 44.1017 170.275 43.8662V38.8627C170.275 37.6755 169.853 36.6601 169.01 35.8135C168.168 34.9669 167.15 34.5435 165.955 34.5435C164.761 34.5435 163.72 34.9669 162.878 35.8135C162.035 36.6601 161.613 37.6755 161.613 38.8627C161.613 38.8468 161.613 40.4828 161.613 43.7739C161.613 44.0253 161.523 44.2449 161.34 44.4263C161.161 44.6078 160.953 44.7001 160.716 44.7001C160.479 44.7001 160.277 44.6173 160.104 44.4518C159.931 44.2863 159.845 44.0858 159.845 43.8471V38.8436C159.845 37.1821 160.434 35.7657 161.613 34.5849C162.791 33.4072 164.226 32.8184 165.917 32.8184C167.608 32.8184 169.027 33.4104 170.221 34.5976C171.416 35.7848 172.014 37.2076 172.014 38.8659L172.021 38.8595ZM83.6056 9.75531C83.6056 9.20149 84.0603 8.74952 84.6175 8.74952C85.1748 8.74952 85.6295 9.20149 85.6295 9.75531C85.6295 10.3091 85.1748 10.7611 84.6175 10.7611C84.0603 10.7611 83.6056 10.3091 83.6056 9.75531ZM97.3444 24.3329C96.7871 24.3329 96.3324 23.8809 96.3324 23.3271C96.3324 22.7733 96.7871 22.3213 97.3444 22.3213C97.9016 22.3213 98.3564 22.7733 98.3564 23.3271C98.3564 23.8809 97.9016 24.3329 97.3444 24.3329ZM100.435 24.3329C99.8776 24.3329 99.4228 23.8809 99.4228 23.3271C99.4228 22.7733 99.8776 22.3213 100.435 22.3213C100.992 22.3213 101.447 22.7733 101.447 23.3271C101.447 23.8809 100.992 24.3329 100.435 24.3329ZM168.469 6.06954C168.469 5.51572 168.924 5.06375 169.481 5.06375C170.038 5.06375 170.493 5.51572 170.493 6.06954C170.493 6.62336 170.038 7.07533 169.481 7.07533C168.924 7.07533 168.469 6.62336 168.469 6.06954ZM173.584 6.06954C173.584 6.62336 173.129 7.07533 172.572 7.07533C172.014 7.07533 171.56 6.62336 171.56 6.06954C171.56 5.51572 172.014 5.06375 172.572 5.06375C173.129 5.06375 173.584 5.51572 173.584 6.06954Z" fill="white"/>
</svg>
