<svg width="173" height="46" viewBox="0 0 173 46" fill="none" xmlns="http://www.w3.org/2000/svg">
<path d="M58.777 15.7009L36.3817 2.25008C33.4034 0.461301 29.666 0.483581 26.7101 2.30418L5.00019 15.685C2.27484 17.3624 0.619141 20.3224 0.619141 23.5085V36.0076C0.619141 41.0907 4.7664 45.2125 9.88084 45.2125H53.986C59.1004 45.2125 63.2477 41.0907 63.2477 36.0076V23.5753C63.2477 20.3511 61.5504 17.3624 58.7738 15.6945L58.777 15.7009ZM59.8018 25.7779C59.6321 27.6685 58.7033 29.3554 57.3263 30.5681C55.9492 31.7808 54.1173 32.5128 52.1349 32.5128H47.2351L47.171 41.7273C47.171 42.3925 46.7547 42.9877 46.143 43.2328C46.0918 43.2582 46.0341 43.2773 45.9733 43.2964L45.9284 43.3091L44.2119 43.2964C44.1478 43.2773 44.087 43.2582 44.0294 43.2328C43.9781 43.2137 43.9333 43.1946 43.8853 43.1627C43.7476 43.0991 43.6322 43.0068 43.5265 42.9113C43.2095 42.6089 43.0206 42.1888 43.0206 41.7304L43.0846 28.4356L43.4433 28.3974H52.3688C53.2911 28.3974 54.1814 28.0027 54.8123 27.3248C55.4496 26.6341 55.7474 25.7365 55.6641 24.8007C55.5136 23.1234 53.9892 21.8184 52.183 21.8184H11.3828C10.4605 21.8184 9.57017 22.2003 8.93927 22.8846C8.30197 23.5753 7.99775 24.4793 8.08102 25.4087C8.23794 27.0797 9.76875 28.3974 11.5686 28.3974H38.6651L38.6972 28.7602L38.71 36.1859C38.71 39.2 36.7884 41.8673 34.0439 42.9145C33.5763 43.0959 33.0767 43.2296 32.5611 43.3091L28.7405 43.3155L28.6893 43.2964C28.6444 43.2773 28.5996 43.2646 28.5579 43.2391C27.9783 42.9813 27.5972 42.3988 27.5972 41.7527V40.9124C27.5972 40.0149 28.337 39.2733 29.2401 39.2733H31.4562C33.1728 39.2733 34.5627 37.8919 34.5627 36.1859V32.5192H11.3764C9.29159 32.5192 7.28359 31.6407 5.87448 30.1034C4.44615 28.5533 3.76401 26.5258 3.95296 24.4347C4.28923 20.6503 7.6615 17.6997 11.6198 17.6997H52.3688C54.4536 17.6997 56.4616 18.5718 57.8707 20.1092C59.299 21.6656 59.9811 23.6867 59.7922 25.7842L59.8018 25.7779ZM21.7526 24.9917C21.7526 26.0325 20.9007 26.876 19.8567 26.876C18.8127 26.876 17.9608 26.0293 17.9608 24.9917C17.9608 23.9541 18.8127 23.1074 19.8567 23.1074C20.9007 23.1074 21.7526 23.9541 21.7526 24.9917ZM16.7182 24.9917C16.7182 26.0325 15.8664 26.876 14.8224 26.876C13.7783 26.876 12.9264 26.0293 12.9264 24.9917C12.9264 23.9541 13.7783 23.1074 14.8224 23.1074C15.8664 23.1074 16.7182 23.9541 16.7182 24.9917ZM160.403 18.6164C160.704 19.1257 161.114 19.4726 161.632 19.6572C162.151 19.8418 162.721 19.9341 163.339 19.9341H167.922C169.033 19.9341 169.825 19.6668 170.292 19.132C170.76 18.5973 170.993 17.757 170.993 16.6176V9.5866C170.993 9.41154 170.907 9.32242 170.734 9.32242H169.799C169.626 9.32242 169.54 9.41154 169.54 9.5866V17.0664C169.54 17.5915 169.437 17.9576 169.235 18.1581C169.033 18.3586 168.71 18.4605 168.268 18.4605H163.247C162.965 18.4605 162.712 18.4286 162.484 18.3681C162.257 18.3077 162.062 18.1899 161.905 18.0117C161.748 17.8366 161.623 17.5979 161.536 17.3019C161.45 17.0027 161.405 16.6271 161.405 16.1688C161.44 15.9746 161.463 15.6977 161.472 15.338C161.482 14.9784 161.485 14.6856 161.485 14.4564C161.485 12.5785 161.088 11.1749 160.291 10.2423C159.493 9.31287 158.324 8.84499 156.784 8.84499C153.665 8.84499 152.108 10.8025 152.108 14.7174C152.108 14.9625 152.111 15.2044 152.121 15.4431C152.131 15.6786 152.143 15.9046 152.159 16.1147C152.159 16.573 152.105 16.9486 151.999 17.2478C151.894 17.547 151.762 17.7889 151.602 17.9735C151.442 18.1581 151.266 18.2854 151.074 18.3554C150.878 18.4254 150.686 18.4605 150.491 18.4605H146.331C145.553 18.4605 144.931 18.2949 144.464 17.9607C143.996 17.6265 143.762 17.1268 143.762 16.4584V13.7975C143.762 13.0082 143.657 12.3334 143.445 11.7701C143.234 11.2099 142.933 10.7484 142.545 10.3887C142.158 10.029 141.684 9.76166 141.127 9.5866C140.569 9.41154 139.958 9.32242 139.285 9.32242H136.236L141.325 3.34499C141.431 3.22085 141.396 3.0999 141.22 2.97577L140.451 2.37103C140.345 2.28191 140.23 2.31055 140.105 2.4506L134.222 9.32242C134.171 9.32242 134.142 9.40199 134.142 9.55796V10.5319C134.142 10.707 134.232 10.7961 134.408 10.7961H138.834C139.999 10.7961 140.848 11.038 141.377 11.5186C141.905 12.0024 142.171 12.7345 142.171 13.718V15.7996C142.171 16.3088 142.145 16.7353 142.091 17.0759C142.036 17.4197 141.927 17.6902 141.761 17.8907C141.591 18.0944 141.344 18.2376 141.018 18.3268C140.691 18.4159 140.262 18.4573 139.734 18.4573H100.945C100.166 18.4573 99.5451 18.2949 99.0776 17.9703C98.61 17.6456 98.3762 17.1491 98.3762 16.4807V9.58023C98.3762 9.40517 98.2865 9.31605 98.1104 9.31605H97.1817C97.0055 9.31605 96.9159 9.40517 96.9159 9.58023V16.242C96.9159 16.6112 96.9031 16.9359 96.8774 17.2159C96.8518 17.496 96.7941 17.7284 96.7045 17.913C96.6148 18.0976 96.4739 18.2345 96.2818 18.3204C96.0864 18.4095 95.8238 18.4509 95.4875 18.4509H90.7702C90.0272 18.4509 89.4508 18.2886 89.0344 17.9639C88.6181 17.6393 88.4131 17.1427 88.4131 16.4743V11.891C88.4131 11.7159 88.3235 11.6268 88.1473 11.6268H87.2186C87.0425 11.6268 86.9528 11.7159 86.9528 11.891V19.4758C86.9528 20.1951 86.8375 20.8062 86.6101 21.3059C86.3827 21.8056 86.0721 22.2131 85.6846 22.5313C85.2971 22.8464 84.8359 23.0756 84.2979 23.2157C83.7599 23.3557 83.193 23.4257 82.5942 23.4257C82.101 23.4257 81.5854 23.3653 81.0473 23.2411C80.5093 23.117 80.0129 22.9037 79.5549 22.595C79.097 22.2863 78.7191 21.8661 78.4181 21.3314C78.117 20.7967 77.9697 20.1155 77.9697 19.2912C77.9697 18.4668 78.1298 17.7061 78.4469 16.9613C78.7639 16.2165 79.1002 15.5704 79.4525 15.0261C79.5422 14.8861 79.5133 14.7715 79.3724 14.6824L78.5494 14.1572C78.3732 14.0522 78.2483 14.0522 78.1779 14.1572C77.7487 14.7556 77.3516 15.5099 76.9833 16.4234C76.6151 17.3369 76.4293 18.3459 76.4293 19.4503C76.4293 20.2747 76.5606 21.029 76.8264 21.7165C77.0922 22.4008 77.4765 22.9833 77.9793 23.4671C78.4821 23.9509 79.1098 24.3233 79.8592 24.5875C80.6086 24.8517 81.4637 24.9822 82.4148 24.9822C83.4396 24.9822 84.3299 24.8421 85.0921 24.562C85.8511 24.2819 86.4756 23.8936 86.9592 23.4035C87.446 22.9101 87.8079 22.3276 88.0448 21.6529C88.2818 20.9781 88.4035 20.2365 88.4035 19.428V19.0843C88.7046 19.3994 89.0601 19.619 89.4764 19.7431C89.8735 19.8609 90.3219 19.9214 90.8247 19.9246C90.8407 19.9246 90.8535 19.9246 90.8695 19.9246H95.638C96.3106 19.9246 96.8198 19.7973 97.1752 19.5426C97.5275 19.288 97.8126 18.9506 98.0239 18.5305C98.2705 19.1289 98.6612 19.5108 99.1897 19.6763C99.702 19.8386 100.317 19.9182 101.028 19.9246C101.044 19.9246 101.054 19.9246 101.07 19.9246H140.256C141.05 19.9246 141.697 19.81 142.19 19.5808C142.683 19.3517 143.055 18.957 143.304 18.3968C143.516 19.0302 143.913 19.4408 144.496 19.6349C145.008 19.8036 145.581 19.8959 146.215 19.915C146.273 19.9182 146.334 19.9246 146.404 19.9246H150.59C151.083 19.9246 151.544 19.8545 151.974 19.7145C152.4 19.5745 152.774 19.2148 153.101 18.6355C153.488 19.1607 154.004 19.5394 154.648 19.7686C155.292 19.9978 156.002 20.1124 156.777 20.1124C157.552 20.1124 158.251 19.9978 158.869 19.7686C159.487 19.5394 159.996 19.1543 160.403 18.61V18.6164ZM159.192 17.6297C158.693 18.3045 157.885 18.6451 156.777 18.6451C155.669 18.6451 154.869 18.3077 154.376 17.6297C153.882 16.955 153.636 15.9237 153.636 14.536C153.636 13.1482 153.882 12.187 154.376 11.4422C154.869 10.6974 155.669 10.3218 156.777 10.3218C157.885 10.3218 158.689 10.7006 159.192 11.4549C159.695 12.2093 159.945 13.2374 159.945 14.536C159.945 15.9237 159.695 16.955 159.192 17.6297ZM89.7742 30.7495H83.952V43.7484C83.952 43.9839 83.8688 44.1876 83.7022 44.3531C83.5357 44.5186 83.3339 44.6014 83.0938 44.6014C82.8536 44.6014 82.6518 44.5186 82.4853 44.3531C82.3187 44.1876 82.2355 43.9871 82.2355 43.7484V30.7495H76.3396C76.1027 30.7495 75.8977 30.6668 75.7311 30.4981C75.5646 30.3294 75.4813 30.1257 75.4813 29.8838C75.4813 29.6419 75.5646 29.4382 75.7311 29.2695C75.8977 29.1008 76.0995 29.018 76.3396 29.018H89.7742C90.0144 29.018 90.2162 29.1008 90.3827 29.2695C90.5492 29.4382 90.6325 29.6419 90.6325 29.8838C90.6325 30.1257 90.5492 30.3294 90.3827 30.4981C90.2162 30.6668 90.0144 30.7495 89.7742 30.7495ZM92.1857 32.5765C90.498 32.5765 89.0601 33.1685 87.8655 34.3557C86.671 35.5429 86.0753 36.9657 86.0753 38.624C86.0753 40.2822 86.671 41.7304 87.8655 42.9176C89.0601 44.1049 90.498 44.6969 92.1857 44.6969C93.8735 44.6969 95.321 44.0476 96.5283 42.7521C96.5283 43.4969 96.5348 43.9075 96.5508 43.9839C96.6468 44.4582 96.9159 44.6969 97.361 44.6969C97.6012 44.6969 97.8094 44.6205 97.9951 44.4709C98.1777 44.3213 98.2705 44.1208 98.2705 43.8661V38.624C98.2705 36.9625 97.6749 35.5397 96.4803 34.3557C95.2858 33.1685 93.8542 32.5765 92.1857 32.5765ZM95.2409 41.6604C94.3987 42.4975 93.3803 42.9176 92.1857 42.9176C90.9912 42.9176 89.9504 42.4975 89.1081 41.6604C88.2658 40.8233 87.8431 39.8112 87.8431 38.624C87.8431 37.4367 88.2658 36.4214 89.1081 35.5748C89.9504 34.7281 90.9784 34.3048 92.1857 34.3048C93.3931 34.3048 94.3955 34.7281 95.2409 35.5748C96.0832 36.4214 96.5059 37.4367 96.5059 38.624C96.5059 39.8112 96.0832 40.8233 95.2409 41.6604ZM121.851 39.0027L121.873 43.9362C121.873 44.1717 121.783 44.3818 121.604 44.5632C121.425 44.7446 121.217 44.8369 120.98 44.8369C120.73 44.8369 120.515 44.7573 120.346 44.6014C120.173 44.4422 120.093 44.2449 120.109 44.0094V39.0059C120.109 37.8187 119.686 36.8033 118.84 35.9567C117.995 35.1101 116.976 34.6867 115.792 34.6867C114.904 34.6867 114.094 34.9414 113.358 35.4443C112.621 35.9503 112.096 36.6156 111.779 37.4367C111.606 37.8632 111.519 38.1879 111.519 38.4107V43.7961C111.519 44.0476 111.426 44.2863 111.244 44.5091C111.061 44.7287 110.847 44.8401 110.603 44.8401C110.36 44.8401 110.152 44.7574 109.982 44.5918C109.812 44.4263 109.739 44.2226 109.755 43.9871V38.3661C109.755 38.1274 109.675 37.806 109.515 37.3922C109.194 36.5392 108.666 35.8517 107.923 35.3297C107.18 34.8077 106.354 34.5467 105.447 34.5467C104.234 34.5467 103.206 34.97 102.36 35.8167C101.515 36.6633 101.092 37.6786 101.092 38.8659C101.092 38.8499 101.092 40.4859 101.092 43.777C101.092 44.0285 101.002 44.2481 100.82 44.4295C100.64 44.6109 100.432 44.7032 100.195 44.7032C99.9583 44.7032 99.7565 44.6205 99.5835 44.455C99.4106 44.2895 99.3242 44.089 99.3242 43.8502V38.8468C99.3242 37.1853 99.9134 35.7689 101.092 34.5881C102.27 33.4104 103.705 32.8216 105.393 32.8216C106.459 32.8216 107.459 33.0826 108.39 33.6046C109.322 34.1266 110.065 34.8459 110.623 35.7626C111.164 34.8936 111.888 34.2093 112.797 33.7096C113.703 33.2131 114.683 32.9616 115.737 32.9616C117.425 32.9616 118.866 33.5536 120.061 34.7408C121.255 35.9281 121.851 37.3508 121.851 39.0091V39.0027ZM131.362 32.8948C131.529 33.0603 131.612 33.264 131.612 33.4995C131.612 33.7351 131.526 33.9356 131.349 34.0915L127.029 37.9587C128.253 38.3852 129.236 39.1332 129.976 40.1995C130.715 41.2657 131.084 42.4498 131.084 43.7452C131.084 43.9839 130.991 44.1813 130.802 44.3372C130.613 44.4964 130.401 44.5727 130.164 44.5727C129.927 44.5727 129.729 44.4804 129.566 44.299C129.402 44.1176 129.319 43.9075 129.319 43.6688C129.319 42.4816 128.896 41.4631 128.051 40.6101C127.205 39.757 126.181 39.3305 124.973 39.3305V43.8375C124.973 44.073 124.88 44.2735 124.691 44.4295C124.502 44.5887 124.291 44.665 124.054 44.665C123.817 44.665 123.619 44.5727 123.455 44.3913C123.292 44.2099 123.209 43.9998 123.209 43.7643V28.6807C123.209 28.461 123.295 28.2669 123.468 28.0982C123.641 27.9327 123.846 27.8499 124.08 27.8499C124.313 27.8499 124.525 27.9422 124.704 28.1237C124.884 28.3051 124.973 28.5152 124.973 28.7507V37.5895L130.129 32.8789C130.305 32.7197 130.51 32.6402 130.751 32.6402C130.991 32.6402 131.192 32.7229 131.359 32.8884L131.362 32.8948ZM141.959 33.595C140.935 32.9139 139.807 32.5765 138.584 32.5765C136.896 32.5765 135.458 33.1685 134.264 34.3557C133.069 35.5429 132.473 36.9657 132.473 38.624C132.473 40.2822 133.069 41.7304 134.264 42.9176C135.458 44.1049 136.896 44.6969 138.584 44.6969C139.314 44.6969 139.839 44.6873 140.16 44.6746C140.733 44.6269 141.018 44.334 141.018 43.7961C141.018 43.2264 140.717 42.9272 140.112 42.8954H138.584C137.566 42.8954 136.662 42.5866 135.875 41.9723C135.087 41.358 134.581 40.5655 134.36 39.5979H144.621V37.7964C144.605 37.4335 144.47 36.9434 144.214 36.3259C143.737 35.1864 142.984 34.2793 141.959 33.5982V33.595ZM134.334 37.7932C134.539 36.7811 135.045 35.9472 135.849 35.2915C136.653 34.6358 137.572 34.308 138.606 34.308C139.641 34.308 140.499 34.639 141.232 35.3042C141.918 35.9535 142.363 36.7843 142.568 37.7932H134.334ZM155.538 33.595C154.513 32.9139 153.386 32.5765 152.163 32.5765C150.475 32.5765 149.037 33.1685 147.842 34.3557C146.648 35.5429 146.052 36.9657 146.052 38.624C146.052 40.2822 146.648 41.7304 147.842 42.9176C149.037 44.1049 150.475 44.6969 152.163 44.6969C152.893 44.6969 153.418 44.6873 153.738 44.6746C154.311 44.6269 154.597 44.334 154.597 43.7961C154.597 43.2264 154.296 42.9272 153.69 42.8954H152.163C151.144 42.8954 150.241 42.5866 149.453 41.9723C148.665 41.358 148.159 40.5655 147.938 39.5979H158.199V37.7964C158.183 37.4335 158.049 36.9434 157.793 36.3259C157.315 35.1864 156.563 34.2793 155.538 33.5982V33.595ZM147.913 37.7932C148.118 36.7811 148.624 35.9472 149.428 35.2915C150.231 34.6358 151.151 34.308 152.185 34.308C153.219 34.308 154.078 34.639 154.811 35.3042C155.496 35.9535 155.942 36.7843 156.147 37.7932H147.913ZM171.205 38.8595L171.227 43.7929C171.227 44.0285 171.138 44.2385 170.955 44.42C170.772 44.6014 170.568 44.6937 170.331 44.6937C170.094 44.6937 169.892 44.6141 169.719 44.4582C169.546 44.3022 169.459 44.1017 169.459 43.8661V38.8627C169.459 37.6755 169.037 36.6601 168.194 35.8135C167.352 34.9668 166.334 34.5435 165.139 34.5435C163.945 34.5435 162.904 34.9668 162.062 35.8135C161.219 36.6601 160.797 37.6755 160.797 38.8627C160.797 38.8468 160.797 40.4827 160.797 43.7738C160.797 44.0253 160.707 44.2449 160.524 44.4263C160.345 44.6078 160.137 44.7001 159.9 44.7001C159.663 44.7001 159.461 44.6173 159.288 44.4518C159.115 44.2863 159.029 44.0858 159.029 43.847V38.8436C159.029 37.1821 159.618 35.7657 160.797 34.5849C161.975 33.4072 163.41 32.8184 165.101 32.8184C166.792 32.8184 168.21 33.4104 169.405 34.5976C170.6 35.7848 171.198 37.2076 171.198 38.8659L171.205 38.8595ZM82.7895 9.75529C82.7895 9.20147 83.2443 8.7495 83.8015 8.7495C84.3587 8.7495 84.8135 9.20147 84.8135 9.75529C84.8135 10.3091 84.3587 10.7611 83.8015 10.7611C83.2443 10.7611 82.7895 10.3091 82.7895 9.75529ZM96.5283 24.3329C95.9711 24.3329 95.5164 23.8809 95.5164 23.3271C95.5164 22.7732 95.9711 22.3213 96.5283 22.3213C97.0856 22.3213 97.5403 22.7732 97.5403 23.3271C97.5403 23.8809 97.0856 24.3329 96.5283 24.3329ZM99.6188 24.3329C99.0615 24.3329 98.6068 23.8809 98.6068 23.3271C98.6068 22.7732 99.0615 22.3213 99.6188 22.3213C100.176 22.3213 100.631 22.7732 100.631 23.3271C100.631 23.8809 100.176 24.3329 99.6188 24.3329ZM167.653 6.06952C167.653 5.5157 168.108 5.06374 168.665 5.06374C169.222 5.06374 169.677 5.5157 169.677 6.06952C169.677 6.62334 169.222 7.07531 168.665 7.07531C168.108 7.07531 167.653 6.62334 167.653 6.06952ZM172.768 6.06952C172.768 6.62334 172.313 7.07531 171.756 7.07531C171.198 7.07531 170.744 6.62334 170.744 6.06952C170.744 5.5157 171.198 5.06374 171.756 5.06374C172.313 5.06374 172.768 5.5157 172.768 6.06952Z" fill="#004B7A"/>
</svg>
