<svg id="Flat" enable-background="new 0 0 64 64" height="512" viewBox="0 0 64 64" width="512" xmlns="http://www.w3.org/2000/svg"><g><path d="m55 8c0 2.64-.62 4.57-1.67 5.95-.02.03-.03.05-.05.07-2.18 2.82-6.12 3.34-10.02 2.96-3.35-.32-6.67-1.3-8.83-2.05.36-.82.57-1.84.57-2.93 0-2.15-.81-3.98-1.96-4.69 4.49-2.8 21.95-13.1 21.96.69z" fill="#d00000"/><path d="m34.899 13.233c-.094.619-.249 1.198-.469 1.697 2.16.75 5.48 1.73 8.83 2.05 3.9.38 7.84-.14 10.02-2.96.02-.02.03-.04.05-.07 1.05-1.38 1.67-3.31 1.67-5.95-.001-.909-.081-1.707-.225-2.415-3.321 6.742-12.487 8.021-19.876 7.648z" fill="#bc0404"/><path d="m9 8c.03-13.76 17.49-3.47 21.96-.69-1.15.71-1.96 2.54-1.96 4.69 0 1.09.21 2.11.57 2.93-2.16.75-5.48 1.73-8.83 2.05-3.91.38-7.86-.14-10.04-2.98-1.06-1.39-1.71-3.33-1.7-6z" fill="#d00000"/><path d="m10.123 3.281c-.705 1.092-1.118 2.623-1.123 4.719-.01 2.67.64 4.61 1.7 6 2.18 2.84 6.13 3.36 10.04 2.98 3.35-.32 6.67-1.3 8.83-2.05-.23-.523-.389-1.133-.481-1.785-7.653-.285-15.12-3.142-18.966-9.864z" fill="#bc0404"/><ellipse cx="32" cy="12" fill="#dc2f02" rx="3" ry="5"/><path d="m35 12c0 2.76-1.34 5-3 5s-3-2.24-3-5c0-.52.05-1.02.14-1.49.38 2.02 1.52 3.49 2.86 3.49s2.48-1.47 2.86-3.49c.09.47.14.97.14 1.49z" fill="#d00000"/><path d="m38 29h3.6l.07-.01c.36 2.01.5 4.33.33 7.01l3-3 4 4s.15-3.56-.65-8h.01 11.64v32c0 1.1-.9 2-2 2h-21v-34z" fill="#ffc008"/><path d="m27 29v34h-21c-1.1 0-2-.9-2-2v-32h11.64.01c-.8 4.44-.65 8-.65 8l4-4 3 3c-.17-2.68-.03-5 .33-7.01l.07.01h3.6z" fill="#ffc008"/><path d="m27 29h10v34h-10z" fill="#d00000"/><path d="m15.65 29c-.19 1.06-.33 2.08-.42 3h-11.23v-3z" fill="#ff9700"/><path d="m27 29v3h-5.01c.05-1.08.17-2.08.34-3.01l.07.01z" fill="#ff9700"/><path d="m27 29h10v3h-10z" fill="#890711"/><path d="m42.01 32h-5.01v-3h4.6l.07-.01c.17.93.29 1.93.34 3.01z" fill="#ff9700"/><path d="m63 15.02v12.98c0 .55-.45 1-1 1h-2-11.64-.01c-.69-3.95-2.14-8.58-5.09-12.02 3.9.38 7.84-.14 10.02-2.96h8.72c.55 0 1 .45 1 1z" fill="#fbde08"/><path d="m41.67 28.99-.07.01h-3.6v-8.49c1.53 1.87 3 4.59 3.67 8.48z" fill="#fbde08"/><path d="m63 15.02v12.98c0 .55-.45 1-1 1h-13.65c-.12-.65-.25-1.32-.41-2h10.006c1.687 0 3.054-1.367 3.054-3.054v-9.926h1c.55 0 1 .45 1 1z" fill="#f9af0b"/><path d="m41.67 28.99-.07.01h-3.6v-2h3.24c.17.63.31 1.29.43 1.99z" fill="#f9af0b"/><path d="m26 20.51v8.49h-3.6l-.07-.01c.67-3.89 2.14-6.61 3.67-8.48z" fill="#fbde08"/><path d="m10.7 14c2.18 2.84 6.13 3.36 10.04 2.98-2.95 3.44-4.4 8.07-5.09 12.02h-.01-11.64-2c-.55 0-1-.45-1-1v-13c0-.55.45-1 1-1z" fill="#fbde08"/><path d="m27 59v4h-21c-1.1 0-2-.9-2-2v-2z" fill="#ff9700"/><path d="m27 59h10v4h-10z" fill="#9d0208"/><path d="m31 16.72c.31.18.65.28 1 .28s.68-.1.99-.28c0 0 2.59.85 5.01 3.79v8.49h-1-10-1v-8.49c2.41-2.94 5-3.79 5-3.79z" fill="#bc0404"/><path d="m26 27v2h-3.6l-.07-.01c.12-.7.26-1.36.43-1.99z" fill="#f9af0b"/><path d="m16.06 27c-.16.68-.29 1.35-.41 2h-13.65c-.55 0-1-.45-1-1v-1z" fill="#f9af0b"/><path d="m26 27h12v2h-12z" fill="#9d0208"/><path d="m38 20.51v3c-2.42-2.94-5.01-3.79-5.01-3.79-.31.18-.64.28-.99.28s-.69-.1-1-.28c0 0-2.59.85-5 3.79v-3c2.41-2.94 5-3.79 5-3.79.31.18.65.28 1 .28s.68-.1.99-.28c0 0 2.59.85 5.01 3.79z" fill="#890711"/><path d="m48.35 29c.8 4.44.65 8 .65 8l-4-4-3 3c.17-2.68.03-5-.33-7.01-.67-3.89-2.14-6.61-3.67-8.48-2.42-2.94-5.01-3.79-5.01-3.79.59-.34 1.09-.97 1.44-1.79 2.16.75 5.48 1.73 8.83 2.05 2.95 3.44 4.4 8.07 5.09 12.02z" fill="#d00000"/><path d="m44.055 36.809c.029-.994.013-1.935-.045-2.819l.99-.99 2 2-2.15 2.15c-.297.297-.807.079-.795-.341z" fill="#ff9700"/><path d="m48.35 29c.19 1.06.33 2.08.42 3h.005c.311 2.939.225 5 .225 5l1.015 1.015c.368.368.999.105.989-.416-.025-1.261-.129-3.27-.488-5.599h.484c2.761 0 5 2.239 5 5v20c0 1.105-.895 2-2 2h-17v4h21c1.1 0 2-.9 2-2v-32z" fill="#ff9700"/><path d="m49.94 29h-1.59c-.69-3.95-2.14-8.58-5.09-12.02.72.07 1.43.11 2.14.11 2.01 3.54 3.89 9.12 4.54 11.91z" fill="#f9af0b"/><path d="m45.32 19.97c-3.41-.26-6.78-.91-9.42-1.54-1.62-1.29-2.91-1.71-2.91-1.71.59-.34 1.09-.97 1.44-1.79 2.16.75 5.48 1.73 8.83 2.05.79.92 1.48 1.93 2.06 2.99z" fill="#9d0208"/><path d="m29.57 14.93c.35.81.85 1.44 1.43 1.79 0 0-2.59.85-5 3.79-1.53 1.87-3 4.59-3.67 8.48-.36 2.01-.5 4.33-.33 7.01l-3-3-4 4s-.15-3.56.65-8c.69-3.95 2.14-8.58 5.09-12.02 3.35-.32 6.67-1.3 8.83-2.05z" fill="#d00000"/><path d="m23.33 30.99c-.31 1.73-.457 3.689-.383 5.909.013.389-.448.599-.723.325l-2.224-2.224-3.283 3.283c-.269.269-.73.083-.727-.298.004-.518.021-1.214.07-2.045l2.94-2.94 3 3c-.17-2.68-.03-5 .33-7.01l.07.01h1.36c-.17.63-.31 1.29-.43 1.99z" fill="#ff7f00"/><path d="m26 20.51v3.37c-.87 1.35-1.68 3.04-2.24 5.12h-1.36l-.07-.01c.67-3.89 2.14-6.61 3.67-8.48z" fill="#f9af0b"/><path d="m31 16.72s-1.29.42-2.9 1.71c-2.64.63-6.01 1.28-9.42 1.54.58-1.06 1.27-2.07 2.06-2.99 3.35-.32 6.67-1.3 8.83-2.05.35.81.85 1.44 1.43 1.79z" fill="#9d0208"/><path d="m31.196 9.533c-.644 0-.841 1.467-.196 1.467.643 0 .84-1.467.196-1.467z" fill="#f75b3c"/><path d="m4.448 15.43c-.791-.124-1.408.498-1.724 1.29-.446 1.118-.56 2.586.558 2.761.83.13.613-1.003.913-1.85.389-1.101 1.332-2.033.253-2.201z" fill="#f7edc6"/><path d="m14.239 3.022c-1.93 0-4.173 2.978-2.239 2.978 1.93 0 4.173-2.978 2.239-2.978z" fill="#f75b3c"/><path d="m3.274 19.87c-.643 0-.645 1 0 1 .644 0 .645-1 0-1z" fill="#f7edc6"/></g></svg>