<svg width="387" height="100" viewBox="0 0 387 100" fill="none" xmlns="http://www.w3.org/2000/svg">
<g filter="url(#filter0_d_13_3053)">
<path d="M194.43 7.02162C193.81 6.99279 193.19 6.99279 192.57 7.02162C191.873 7.05408 191.177 7.13459 189.787 7.29701L34.2871 25.463C24.2793 26.6322 19.275 27.2174 15.501 29.5451C12.1765 31.5955 9.52491 34.5744 7.87402 38.1144C6.00003 42.133 6 47.1714 6 57.2472V94.465C6 94.4705 5.99989 94.4736 6.00097 94.4757C6.00194 94.4775 6.00404 94.4787 6.00586 94.4796C6.00792 94.4806 6.0105 94.4806 6.01562 94.4806H380.984C380.989 94.4806 380.992 94.4806 380.994 94.4796C380.996 94.4787 380.998 94.4775 380.999 94.4757C381 94.4736 381 94.4705 381 94.465V57.2472C381 47.1714 381 42.133 379.126 38.1144C377.475 34.5744 374.824 31.5955 371.499 29.5451C367.725 27.2174 362.721 26.6322 352.713 25.463L197.213 7.29701C195.823 7.13459 195.127 7.05408 194.43 7.02162Z" fill="#004B7A"/>
</g>
<defs>
<filter id="filter0_d_13_3053" x="0" y="0" width="387" height="99.4806" filterUnits="userSpaceOnUse" color-interpolation-filters="sRGB">
<feFlood flood-opacity="0" result="BackgroundImageFix"/>
<feColorMatrix in="SourceAlpha" type="matrix" values="0 0 0 0 0 0 0 0 0 0 0 0 0 0 0 0 0 0 127 0" result="hardAlpha"/>
<feOffset dy="-1"/>
<feGaussianBlur stdDeviation="3"/>
<feComposite in2="hardAlpha" operator="out"/>
<feColorMatrix type="matrix" values="0 0 0 0 0 0 0 0 0 0 0 0 0 0 0 0 0 0 0.25 0"/>
<feBlend mode="normal" in2="BackgroundImageFix" result="effect1_dropShadow_13_3053"/>
<feBlend mode="normal" in="SourceGraphic" in2="effect1_dropShadow_13_3053" result="shape"/>
</filter>
</defs>
</svg>
